<svg id="95:48" viewBox="0 0 32 32" xmlns="http://www.w3.org/2000/svg" xmlns:xlink="http://www.w3.org/1999/xlink"><g transform="matrix(1,0,0,1,0,0)"><g id="95:48" opacity="1" style="mix-blend-mode:normal"><g><defs><clipPath id="95:48_clipPath" x="-50%" y="-50%" width="200%" height="200%"><path d="M0,0h32v0v32v0h-32v0v-32z" fill="white" clip-rule="nonzero"></path></clipPath></defs><g clip-path="url(#95:48_clipPath)"><g transform="matrix(1,0,0,1,0,0)"><g id="95:37" opacity="1" style="mix-blend-mode:normal"><g><g><g transform="matrix(1,0,0,1,0,0)"><g id="93:3" opacity="1" style="mix-blend-mode:normal"><g><g><path id="93:3_fill_path" d="M32,16c0,8.8368 -7.1632,16 -16,16c-8.8368,0 -16,-7.1632 -16,-16c0,-8.8368 7.1632,-16 16,-16c8.8368,0 16,7.1632 16,16z" fill-rule="nonzero" fill="rgb(25, 25, 25)" fill-opacity="1" style="mix-blend-mode:NORMAL"></path></g></g></g></g><g transform="matrix(1,0,0,1,7.4003,7.4002)"><g id="95:47" opacity="1" style="mix-blend-mode:normal"><g><g><path id="95:47_fill_path" d="M3.51474,1.94444c-0.41646,0 -0.81588,0.16545 -1.11037,0.45993c-0.29448,0.29449 -0.45993,0.69391 -0.45993,1.11037v2.73792l0.28619,-0.28619l0.00006,-0.00006c0.56535,-0.56527 1.33209,-0.88283 2.13156,-0.88283c0.75133,0 1.47375,0.28047 2.02727,0.78342c0.62262,-0.5036 1.4021,-0.78194 2.21027,-0.78194h1.57031v-1.57032c0,-0.41647 -0.1655,-0.81588 -0.45994,-1.11037c-0.29449,-0.29448 -0.6939,-0.45993 -1.11037,-0.45993zM3.60551,7.34145l-1.61907,1.61907c0.06646,0.28156 0.21004,0.54175 0.41793,0.74964c0.29449,0.29444 0.6939,0.45994 1.11037,0.45994h1.5703v-1.57029c0,-0.3815 0.06203,-0.7566 0.18049,-1.11183l-0.14654,-0.14653l-0.00005,-0.00005c-0.20071,-0.20065 -0.47289,-0.31337 -0.75669,-0.31337c-0.2838,0 -0.55598,0.11272 -0.75669,0.31337zM7.02949,11.1423v-0.001v-2.54149c0,-0.41647 0.16544,-0.81588 0.45993,-1.11037c0.29449,-0.29449 0.6939,-0.45993 1.11037,-0.45993h5.08501c0.4165,0 0.8159,0.16544 1.1104,0.45993c0.2945,0.29449 0.4599,0.6939 0.4599,1.11037v5.08509c0,0.4164 -0.1654,0.8158 -0.4599,1.1103c-0.2945,0.2945 -0.6939,0.46 -1.1104,0.46h-5.08501c-0.41647,0 -0.81588,-0.1655 -1.11037,-0.46c-0.29449,-0.2945 -0.45993,-0.6939 -0.45993,-1.1103v-2.5416zM3.51474,12.1145h1.5703v1.5704c0,0.9321 0.37031,1.8261 1.02945,2.4853c0.65914,0.6591 1.55313,1.0294 2.4853,1.0294h5.08501c0.9322,0 1.8262,-0.3703 2.4853,-1.0294c0.6592,-0.6592 1.0295,-1.5532 1.0295,-2.4853v-5.08509c0,-0.93217 -0.3703,-1.82616 -1.0295,-2.4853c-0.6591,-0.65915 -1.5531,-1.02945 -2.4853,-1.02945h-1.5703v-1.57032c0,-0.93216 -0.3703,-1.82615 -1.0294,-2.4853c-0.6592,-0.65914 -1.55314,-1.02944 -2.48531,-1.02944h-5.08505c-0.93216,0 -1.82615,0.3703 -2.4853,1.02944c-0.65914,0.65915 -1.02944,1.55314 -1.02944,2.4853v5.08505c0,0.93217 0.3703,1.82611 1.02944,2.48531c0.65915,0.6591 1.55314,1.0294 2.4853,1.0294zM5.33452,3.51445c0,-0.53694 -0.43528,-0.97222 -0.97222,-0.97222c-0.53694,0 -0.97222,0.43528 -0.97222,0.97222v0.00848c0,0.53694 0.43528,0.97222 0.97222,0.97222c0.53694,0 0.97222,-0.43528 0.97222,-0.97222zM10.7951,9.03708c-0.3004,-0.18021 -0.6745,-0.18493 -0.97926,-0.01235c-0.3048,0.17257 -0.49321,0.49576 -0.49321,0.84603v2.54254c0,0.3502 0.18841,0.6734 0.49321,0.846c0.30476,0.1726 0.67886,0.1679 0.97926,-0.0123l2.1187,-1.2713c0.2929,-0.1757 0.472,-0.4922 0.472,-0.8337c0,-0.3415 -0.1791,-0.658 -0.472,-0.8337z" fill-rule="evenodd" fill="rgb(255, 255, 255)" fill-opacity="0" style="mix-blend-mode:NORMAL"></path></g></g></g></g><g transform="matrix(1,0,0,1,7.5,8.3525)"><g id="95:46" opacity="1" style="mix-blend-mode:normal"><g><g><path id="95:46_fill_path" d="M10.4057,0.0249c0.44333,0.11083 0.71288,0.56008 0.60205,1.00341l-3.41003,13.64012c-0.11083,0.44333 -0.56008,0.71288 -1.00341,0.60204c-0.44333,-0.11083 -0.71288,-0.56008 -0.60205,-1.00341l3.41003,-13.64012c0.11083,-0.44333 0.56008,-0.71288 1.00341,-0.60205zM4.82255,3.65258c0.32313,0.32313 0.32313,0.84703 0,1.17017l-2.82495,2.82495l2.82495,2.82495c0.32313,0.32313 0.32313,0.84703 0,1.17017c-0.32313,0.32313 -0.84703,0.32313 -1.17017,0l-3.41003,-3.41003c-0.32313,-0.32313 -0.32313,-0.84704 0,-1.17017l3.41003,-3.41003c0.32313,-0.32313 0.84703,-0.32313 1.17017,0zM12.17745,3.65258c0.32313,-0.32313 0.84703,-0.32313 1.17017,0l3.41003,3.41003c0.15517,0.15517 0.24235,0.36564 0.24235,0.58508c0,0.21945 -0.08718,0.42991 -0.24235,0.58508l-3.41003,3.41003c-0.32313,0.32313 -0.84703,0.32313 -1.17017,0c-0.32313,-0.32313 -0.32313,-0.84703 0,-1.17017l2.82495,-2.82495l-2.82495,-2.82495c-0.32313,-0.32313 -0.32313,-0.84703 0,-1.17017z" fill-rule="evenodd" fill="rgb(255, 255, 255)" fill-opacity="0" style="mix-blend-mode:NORMAL"></path></g></g></g></g><g transform="matrix(1,0,0,1,7.4003,7.4002)"><g id="95:38" opacity="1" style="mix-blend-mode:normal"><g><g><path id="95:38_fill_path" d="M8.59979,0c-1.12934,0 -2.24762,0.22244 -3.291,0.65462c-1.04337,0.43218 -1.99141,1.06564 -2.78997,1.8642c-0.79856,0.79856 -1.43202,1.7466 -1.8642,2.78997c-0.43218,1.04338 -0.65462,2.16166 -0.65462,3.291c0,1.12934 0.22244,2.24761 0.65462,3.29101c0.43218,1.0434 1.06564,1.9914 1.8642,2.79c0.79856,0.7985 1.7466,1.432 2.78997,1.8642c1.04338,0.4321 2.16166,0.6546 3.291,0.6546c1.12934,0 2.24761,-0.2225 3.29101,-0.6546c1.0434,-0.4322 1.9914,-1.0657 2.79,-1.8642c0.7985,-0.7986 1.432,-1.7466 1.8642,-2.79c0.4321,-1.0434 0.6546,-2.16167 0.6546,-3.29101c0,-1.12934 -0.2225,-2.24762 -0.6546,-3.291c-0.4322,-1.04337 -1.0657,-1.99141 -1.8642,-2.78997c-0.7986,-0.79856 -1.7466,-1.43202 -2.79,-1.8642c-1.0434,-0.43218 -2.16167,-0.65462 -3.29101,-0.65462zM6.0529,2.45105c0.80746,-0.33446 1.6729,-0.50661 2.54689,-0.50661c0.87399,0 1.73941,0.17215 2.54691,0.50661c0.8074,0.33446 1.5411,0.82469 2.1591,1.4427c0.618,0.61801 1.1083,1.35169 1.4427,2.15915c0.3345,0.80746 0.5066,1.6729 0.5066,2.54689c0,0.87399 -0.1721,1.73941 -0.5066,2.54691c-0.3344,0.8074 -0.8247,1.5411 -1.4427,2.1591c-0.618,0.618 -1.3517,1.1083 -2.1591,1.4427c-0.8075,0.3345 -1.67292,0.5066 -2.54691,0.5066c-0.87399,0 -1.73943,-0.1721 -2.54689,-0.5066c-0.80746,-0.3344 -1.54114,-0.8247 -2.15915,-1.4427c-0.61801,-0.618 -1.10824,-1.3517 -1.4427,-2.1591c-0.33446,-0.8075 -0.50661,-1.67292 -0.50661,-2.54691c0,-0.87399 0.17215,-1.73943 0.50661,-2.54689c0.33446,-0.80746 0.82469,-1.54114 1.4427,-2.15915c0.61801,-0.61801 1.35169,-1.10824 2.15915,-1.4427zM11.0726,6.32164c-0.3221,-0.42956 -0.9315,-0.51662 -1.36108,-0.19445c-0.42956,0.32217 -0.51661,0.93156 -0.19445,1.36111l0.83373,1.11168l-0.83373,1.11168c-0.32216,0.42954 -0.23511,1.03894 0.19445,1.36114c0.42958,0.3221 1.03898,0.2351 1.36108,-0.1945l0.4935,-0.6579l0.4935,0.6579c0.3222,0.4296 0.9316,0.5166 1.3611,0.1945c0.4296,-0.3222 0.5166,-0.9316 0.1945,-1.36114l-0.8338,-1.11168l0.8338,-1.11168c0.3221,-0.42955 0.2351,-1.03894 -0.1945,-1.36111c-0.4295,-0.32217 -1.0389,-0.23511 -1.3611,0.19445l-0.4935,0.65797zM5.33452,6.90497c0,-0.53694 -0.43528,-0.97222 -0.97222,-0.97222c-0.53694,0 -0.97222,0.43528 -0.97222,0.97222v1.69501c0,0.7074 0.28101,1.38582 0.78121,1.88602c0.50021,0.5002 1.17863,0.7812 1.88603,0.7812c0.70739,0 1.38581,-0.281 1.88602,-0.7812c0.5002,-0.5002 0.78121,-1.17862 0.78121,-1.88602v-1.69501c0,-0.53694 -0.43528,-0.97222 -0.97222,-0.97222c-0.53694,0 -0.97222,0.43528 -0.97222,0.97222v1.69501c0,0.1917 -0.07615,0.37554 -0.2117,0.51109c-0.13555,0.13555 -0.3194,0.2117 -0.51109,0.2117c-0.1917,0 -0.37555,-0.07615 -0.5111,-0.2117c-0.13555,-0.13555 -0.2117,-0.31939 -0.2117,-0.51109z" fill-rule="evenodd" fill="rgb(255, 255, 255)" fill-opacity="0" style="mix-blend-mode:NORMAL"></path></g></g></g></g><g transform="matrix(1,0,0,1,7,7)"><g id="95:39" opacity="1" style="mix-blend-mode:normal"><g><g><path id="95:39_fill_path" d="M16.8478,0.24409c0.1842,0.18424 0.2717,0.44404 0.2363,0.70219c-0.3548,2.5946 -1.4037,5.04525 -3.0357,7.09328c-1.4796,1.85684 -3.389,3.32025 -5.5584,4.26675c0.09053,0.7298 -0.00919,1.4726 -0.29196,2.1552c-0.32252,0.7787 -0.86869,1.4442 -1.56944,1.9124c-0.70075,0.4682 -1.52461,0.7182 -2.3674,0.7182h-3.42787c-0.46024,0 -0.83333,-0.3731 -0.83333,-0.8334v-3.4278c0,-0.8428 0.24992,-1.6667 0.71814,-2.3674c0.46823,-0.70079 1.13374,-1.24696 1.91237,-1.56948c0.68258,-0.28273 1.42521,-0.38246 2.15491,-0.292c0.94653,-2.16951 2.40998,-4.07889 4.26688,-5.5586c2.048,-1.63202 4.4987,-2.68083 7.0933,-3.03572c0.2581,-0.03531 0.5179,0.05215 0.7022,0.23639zM6.73783,12.0969c-0.02113,-0.0559 -0.03585,-0.1128 -0.04451,-0.1696c-0.12936,-0.3482 -0.33258,-0.6661 -0.5975,-0.9311c-0.26514,-0.2651 -0.58337,-0.4684 -0.93189,-0.5978c-0.05664,-0.0086 -0.11325,-0.0233 -0.16901,-0.0444c-0.02598,-0.0098 -0.05118,-0.0208 -0.07557,-0.0328c-0.0502,-0.0132 -0.10087,-0.0249 -0.15198,-0.035c-0.50329,-0.1001 -1.02496,-0.0488 -1.49905,0.1476c-0.47409,0.1964 -0.8793,0.5289 -1.16439,0.9556c-0.2851,0.4267 -0.43726,0.9283 -0.43726,1.4415v2.5945h2.59453c0.51315,0 1.01478,-0.1522 1.44145,-0.4373c0.42667,-0.2851 0.75922,-0.6903 0.95559,-1.1644c0.19638,-0.474 0.24776,-0.9957 0.14765,-1.499c-0.01014,-0.051 -0.02177,-0.1015 -0.03489,-0.1515c-0.01218,-0.0246 -0.02326,-0.0501 -0.03317,-0.0763zM10.0628,9.52242c-0.65967,0.46219 -1.36302,0.86268 -2.10134,1.19518c-0.187,-0.3275 -0.41762,-0.6304 -0.68713,-0.89987c-0.26957,-0.26957 -0.57257,-0.50025 -0.9001,-0.68727c0.3325,-0.73839 0.73303,-1.4418 1.19527,-2.10157c1.03353,0.60034 1.89307,1.45995 2.4933,2.49353zM11.3744,8.46946c-0.6934,-1.11668 -1.6353,-2.05868 -2.75194,-2.75209c0.4514,-0.49256 0.9421,-0.95104 1.46854,-1.37052c1.5078,-1.20154 3.2621,-2.04604 5.1312,-2.47717c-0.4312,1.86909 -1.2757,3.62338 -2.4772,5.13119c-0.4195,0.52645 -0.878,1.01717 -1.3706,1.46859z" fill-rule="evenodd" fill="rgb(255, 255, 255)" fill-opacity="1" style="mix-blend-mode:NORMAL"></path></g></g></g></g></g></g></g></g></g></g></g></g><animate href="#95:47_fill_path" attributeName="fill" values="rgb(255, 255, 255;rgb(255, 255, 255;rgb(255, 255, 255;rgb(255, 255, 255;rgb(255, 255, 255;rgb(255, 255, 255" dur="11.2s" repeatCount="indefinite" keyTimes="0;0.68;0.75;0.86;0.93;1" fill="freeze"></animate><animate href="#95:47_fill_path" attributeName="fill-opacity" values="0;0;1;1;0;0" dur="11.2s" repeatCount="indefinite" keyTimes="0;0.68;0.75;0.86;0.93;1" fill="freeze"></animate><animate href="#95:46_fill_path" attributeName="fill" values="rgb(255, 255, 255;rgb(255, 255, 255;rgb(255, 255, 255;rgb(255, 255, 255;rgb(255, 255, 255;rgb(255, 255, 255" dur="11.2s" repeatCount="indefinite" keyTimes="0;0.43;0.5;0.61;0.68;1" fill="freeze"></animate><animate href="#95:46_fill_path" attributeName="fill-opacity" values="0;0;1;1;0;0" dur="11.2s" repeatCount="indefinite" keyTimes="0;0.43;0.5;0.61;0.68;1" fill="freeze"></animate><animate href="#95:38_fill_path" attributeName="fill" values="rgb(255, 255, 255;rgb(255, 255, 255;rgb(255, 255, 255;rgb(255, 255, 255;rgb(255, 255, 255;rgb(255, 255, 255" dur="11.2s" repeatCount="indefinite" keyTimes="0;0.18;0.25;0.36;0.43;1" fill="freeze"></animate><animate href="#95:38_fill_path" attributeName="fill-opacity" values="0;0;1;1;0;0" dur="11.2s" repeatCount="indefinite" keyTimes="0;0.18;0.25;0.36;0.43;1" fill="freeze"></animate><animate href="#95:39_fill_path" attributeName="fill" values="rgb(255, 255, 255;rgb(255, 255, 255;rgb(255, 255, 255;rgb(255, 255, 255;rgb(255, 255, 255" dur="11.2s" repeatCount="indefinite" keyTimes="0;0.11;0.18;0.93;1" fill="freeze"></animate><animate href="#95:39_fill_path" attributeName="fill-opacity" values="1;1;0;0;1" dur="11.2s" repeatCount="indefinite" keyTimes="0;0.11;0.18;0.93;1" fill="freeze"></animate></svg>