<svg id="95:49" viewBox="0 0 32 32" xmlns="http://www.w3.org/2000/svg" xmlns:xlink="http://www.w3.org/1999/xlink"><g transform="matrix(1,0,0,1,0,0)"><g id="95:49" opacity="1" style="mix-blend-mode:normal"><g><defs><clipPath id="95:49_clipPath" x="-50%" y="-50%" width="200%" height="200%"><path d="M0,0h32v0v32v0h-32v0v-32z" fill="white" clip-rule="nonzero"></path></clipPath></defs><g clip-path="url(#95:49_clipPath)"><g transform="matrix(1,0,0,1,0,0)"><g id="95:35" opacity="1" style="mix-blend-mode:normal"><g><g><g transform="matrix(1,0,0,1,8.7073,14.8706)"><g id="95:44" opacity="1" style="mix-blend-mode:normal"><g><g><g transform="matrix(1,0,0,1,0,0)"><g id="95:41" opacity="1" style="mix-blend-mode:normal"><g><g><path id="95:41_fill_path" d="M2.5748,1.2874c0,0.711 -0.5764,1.2874 -1.2874,1.2874c-0.711,0 -1.2874,-0.5764 -1.2874,-1.2874c0,-0.711 0.5764,-1.2874 1.2874,-1.2874c0.711,0 1.2874,0.5764 1.2874,1.2874z" fill-rule="nonzero" fill="rgb(255, 255, 255)" fill-opacity="0" style="mix-blend-mode:NORMAL"></path></g></g></g></g><g transform="matrix(1,0,0,1,5.6875,0)"><g id="95:42" opacity="1" style="mix-blend-mode:normal"><g><g><path id="95:42_fill_path" d="M2.5748,1.2874c0,0.711 -0.5764,1.2874 -1.2874,1.2874c-0.711,0 -1.2874,-0.5764 -1.2874,-1.2874c0,-0.711 0.5764,-1.2874 1.2874,-1.2874c0.711,0 1.2874,0.5764 1.2874,1.2874z" fill-rule="nonzero" fill="rgb(255, 255, 255)" fill-opacity="0" style="mix-blend-mode:NORMAL"></path></g></g></g></g><g transform="matrix(1,0,0,1,11.375,0)"><g id="95:43" opacity="1" style="mix-blend-mode:normal"><g><g><path id="95:43_fill_path" d="M2.5748,1.2874c0,0.711 -0.5764,1.2874 -1.2874,1.2874c-0.711,0 -1.2874,-0.5764 -1.2874,-1.2874c0,-0.711 0.5764,-1.2874 1.2874,-1.2874c0.711,0 1.2874,0.5764 1.2874,1.2874z" fill-rule="nonzero" fill="rgb(255, 255, 255)" fill-opacity="0" style="mix-blend-mode:NORMAL"></path></g></g></g></g></g></g></g></g><g transform="matrix(1,0,0,1,6.3417,7.4854)"><g id="95:36" opacity="1" style="mix-blend-mode:normal"><g><g><path id="95:36_fill_path" d="M6.6515,0c-0.5868,0 -1.0625,0.4757 -1.0625,1.0625v3.72603v4.93717c-0.53249,-0.2676 -1.12485,-0.41074 -1.73198,-0.41074c-1.02294,0 -2.00399,0.40636 -2.72732,1.12974c-0.72334,0.7233 -1.1297,1.7043 -1.1297,2.7273c0,1.0229 0.40636,2.004 1.1297,2.7273c0.72333,0.7233 1.70438,1.1297 2.72732,1.1297c1.02295,0 2.00399,-0.4064 2.72733,-1.1297c0.72333,-0.7233 1.12969,-1.7044 1.12969,-2.7273c0,-0.0059 -0.00001,-0.0118 -0.00004,-0.0177v-7.30327h7.1901v3.87467c-0.5325,-0.2676 -1.1249,-0.41074 -1.732,-0.41074c-1.023,0 -2.004,0.40636 -2.7273,1.12974c-0.72337,0.7233 -1.12973,1.7043 -1.12973,2.7273c0,1.0229 0.40636,2.004 1.12973,2.7273c0.7233,0.7233 1.7043,1.1297 2.7273,1.1297c1.0229,0 2.004,-0.4064 2.7273,-1.1297c0.7233,-0.7233 1.1297,-1.7044 1.1297,-2.7273c0,-0.0059 0,-0.0117 0,-0.0176v-8.36587v-3.72603c0,-0.5868 -0.4757,-1.0625 -1.0625,-1.0625zM14.9041,13.1602v0.0119c0,0.0024 0,0.0048 0,0.0073c-0.0019,0.4567 -0.1842,0.8942 -0.5073,1.2173c-0.3248,0.3248 -0.7653,0.5073 -1.2247,0.5073c-0.4594,0 -0.8999,-0.1825 -1.2247,-0.5073c-0.3249,-0.3248 -0.5073,-0.7654 -0.5073,-1.2247c0,-0.4594 0.1824,-0.8999 0.5073,-1.2247c0.3248,-0.3249 0.7653,-0.5073 1.2247,-0.5073c0.4594,0 0.8999,0.1824 1.2247,0.5073c0.3221,0.322 0.5042,0.7578 0.5073,1.2129zM5.589,13.1601v0.012c0,0.0024 0.00001,0.0049 0.00003,0.0073c-0.00196,0.4567 -0.18422,0.8942 -0.50728,1.2173c-0.32482,0.3248 -0.76537,0.5073 -1.22473,0.5073c-0.45936,0 -0.89991,-0.1825 -1.22472,-0.5073c-0.32482,-0.3248 -0.5073,-0.7654 -0.5073,-1.2247c0,-0.4594 0.18248,-0.8999 0.5073,-1.2247c0.32481,-0.3249 0.76536,-0.5073 1.22472,-0.5073c0.45936,0 0.89991,0.1824 1.22473,0.5073c0.32201,0.322 0.50414,0.7577 0.50725,1.2128zM14.9041,3.72603h-7.1901v-1.60103h7.1901z" fill-rule="evenodd" fill="rgb(255, 255, 255)" fill-opacity="0" style="mix-blend-mode:NORMAL"></path></g></g></g></g><g transform="matrix(1,0,0,1,7.5,7.5)"><g id="95:61" opacity="1" style="mix-blend-mode:normal"><g><g><path id="95:61_fill_path" d="M5.27547,0.55324c0.35423,-0.35423 0.83468,-0.55324 1.33565,-0.55324h3.77778c0.50097,0 0.98141,0.19901 1.33565,0.55324c0.35424,0.35423 0.55324,0.83468 0.55324,1.33565v1.88889c0,0.25048 -0.0995,0.49071 -0.27662,0.66782l-2.83333,2.83333c-0.36883,0.36883 -0.96682,0.36883 -1.33565,0l-2.83333,-2.83333c-0.17712,-0.17712 -0.27662,-0.41734 -0.27662,-0.66782v-1.88889c0,-0.50097 0.19901,-0.98141 0.55324,-1.33565zM10.38889,1.88889l-3.77778,0v1.49769l1.88889,1.88889l1.88889,-1.88889zM0.55324,5.27547c0.35423,-0.35423 0.83468,-0.55324 1.33565,-0.55324h1.88889c0.25048,0 0.49071,0.0995 0.66782,0.27662l2.83333,2.83333c0.36883,0.36883 0.36883,0.96682 0,1.33565l-2.83333,2.83333c-0.17712,0.17712 -0.41734,0.27662 -0.66782,0.27662h-1.88889c-0.50097,0 -0.98141,-0.19901 -1.33565,-0.55324c-0.35423,-0.35423 -0.55324,-0.83468 -0.55324,-1.33565v-3.77778c0,-0.50097 0.19901,-0.98141 0.55324,-1.33565zM3.38658,6.61111h-1.49769l0,3.77778h1.49769l1.88889,-1.88889zM12.5544,4.99884c0.17712,-0.17712 0.41734,-0.27662 0.66782,-0.27662h1.88889c0.50096,0 0.98141,0.19901 1.33565,0.55324c0.35424,0.35424 0.55324,0.83468 0.55324,1.33565v3.77778c0,0.50096 -0.19901,0.98141 -0.55324,1.33565c-0.35424,0.35424 -0.83468,0.55324 -1.33565,0.55324h-1.88889c-0.25048,0 -0.49071,-0.0995 -0.66782,-0.27662l-2.83333,-2.83333c-0.36883,-0.36883 -0.36883,-0.96682 0,-1.33565zM13.61342,6.61111l-1.88889,1.88889l1.88889,1.88889h1.49769v-3.77778zM4.99884,12.5544l2.83333,-2.83333c0.36883,-0.36883 0.96682,-0.36883 1.33565,0l2.83333,2.83333c0.17712,0.17712 0.27662,0.41734 0.27662,0.66782v1.88889c0,0.50096 -0.19901,0.98141 -0.55324,1.33565c-0.35424,0.35424 -0.83468,0.55324 -1.33565,0.55324h-3.77778c-0.50096,0 -0.98141,-0.19901 -1.33565,-0.55324c-0.35424,-0.35424 -0.55324,-0.83468 -0.55324,-1.33565v-1.88889c0,-0.25048 0.0995,-0.49071 0.27662,-0.66782zM6.61111,13.61342v1.49769h3.77778v-1.49769l-1.88889,-1.88889z" fill-rule="evenodd" fill="rgb(255, 255, 255)" fill-opacity="0" style="mix-blend-mode:NORMAL"></path></g></g></g></g><g transform="matrix(1,0,0,1,7.5,6.5556)"><g id="95:60" opacity="1" style="mix-blend-mode:normal"><g><g><path id="95:60_fill_path" d="M8.04485,0.11691c0.28341,-0.15588 0.62688,-0.15588 0.91029,0l1.88889,1.03889c0.45704,0.25137 0.62376,0.82565 0.37239,1.28268c-0.25137,0.45704 -0.82565,0.62376 -1.28268,0.37239l-1.43374,-0.78856l-1.43374,0.78856c-0.45704,0.25137 -1.03131,0.08464 -1.28268,-0.37239c-0.25137,-0.45704 -0.08464,-1.03131 0.37239,-1.28268zM3.66087,3.70041c0.25137,0.45704 0.08464,1.03131 -0.37239,1.28268l-0.38428,0.21135l0.38428,0.21135c0.45704,0.25137 0.62376,0.82565 0.37239,1.28268c-0.25137,0.45704 -0.82565,0.62376 -1.28268,0.37239l-0.4893,-0.26911v0.7638c0,0.5216 -0.42284,0.94444 -0.94444,0.94444c-0.5216,0 -0.94444,-0.42284 -0.94444,-0.94444v-2.36111c0,-0.34443 0.1875,-0.66155 0.4893,-0.82754l1.88889,-1.03889c0.45704,-0.25137 1.03131,-0.08464 1.28268,0.37239zM13.33913,3.70041c0.25137,-0.45704 0.82565,-0.62376 1.28268,-0.37239l1.88889,1.03889c0.3018,0.16599 0.4893,0.48311 0.4893,0.82754v2.36111c0,0.5216 -0.42284,0.94444 -0.94444,0.94444c-0.5216,0 -0.94444,-0.42284 -0.94444,-0.94444v-0.7638l-0.4893,0.26911c-0.45704,0.25137 -1.03131,0.08464 -1.28268,-0.37239c-0.25137,-0.45704 -0.08464,-1.03131 0.37239,-1.28268l0.38428,-0.21135l-0.38428,-0.21135c-0.45704,-0.25137 -0.62376,-0.82565 -0.37239,-1.28268zM5.78708,7.92521c0.25486,-0.4551 0.83039,-0.61743 1.28549,-0.36258l1.43156,0.80167l1.42961,-0.78629c0.45704,-0.25137 1.03131,-0.08464 1.28268,0.37239c0.25137,0.45704 0.08464,1.03131 -0.37239,1.28268l-1.39959,0.76978v1.80269c0,0.5216 -0.42284,0.94444 -0.94444,0.94444c-0.5216,0 -0.94444,-0.42284 -0.94444,-0.94444v-1.80755l-1.4059,-0.78731c-0.4551,-0.25486 -0.61743,-0.83039 -0.36257,-1.28549zM0.94444,10.38889c0.5216,0 0.94444,0.42284 0.94444,0.94444v1.80269l1.39959,0.76978c0.45704,0.25137 0.62376,0.82565 0.37239,1.28268c-0.25137,0.45704 -0.82565,0.62376 -1.28268,0.37239l-1.88889,-1.03889c-0.3018,-0.16599 -0.4893,-0.48311 -0.4893,-0.82754v-2.36111c0,-0.5216 0.42284,-0.94444 0.94444,-0.94444zM16.05556,10.38889c0.5216,0 0.94444,0.42284 0.94444,0.94444v2.36111c0,0.34185 -0.18472,0.65701 -0.48298,0.82403l-1.88889,1.05778c-0.4551,0.25486 -1.03064,0.09253 -1.28549,-0.36257c-0.25486,-0.4551 -0.09253,-1.03064 0.36257,-1.28549l1.4059,-0.78731v-1.80755c0,-0.5216 0.42284,-0.94444 0.94444,-0.94444zM8.5,14.63889c0.5216,0 0.94444,0.42284 0.94444,0.94444v0.7638l0.4893,-0.26911c0.45704,-0.25137 1.03131,-0.08465 1.28268,0.37239c0.25137,0.45704 0.08464,1.03131 -0.37239,1.28268l-1.88889,1.03889c-0.28341,0.15588 -0.62688,0.15588 -0.91029,0l-1.88889,-1.03889c-0.45704,-0.25137 -0.62376,-0.82565 -0.37239,-1.28268c0.25137,-0.45704 0.82565,-0.62376 1.28268,-0.37239l0.4893,0.26911v-0.7638c0,-0.5216 0.42284,-0.94444 0.94444,-0.94444z" fill-rule="evenodd" fill="rgb(255, 255, 255)" fill-opacity="1" style="mix-blend-mode:NORMAL"></path></g></g></g></g></g></g></g></g></g></g></g></g><animate href="#95:41_fill_path" attributeName="fill" values="rgb(255, 255, 255;rgb(255, 255, 255;rgb(255, 255, 255;rgb(255, 255, 255;rgb(255, 255, 255;rgb(255, 255, 255" dur="11.2s" repeatCount="indefinite" keyTimes="0;0.68;0.75;0.86;0.93;1" fill="freeze"></animate><animate href="#95:41_fill_path" attributeName="fill-opacity" values="0;0;1;1;0;0" dur="11.2s" repeatCount="indefinite" keyTimes="0;0.68;0.75;0.86;0.93;1" fill="freeze"></animate><animate href="#95:41_fill_path" attributeName="d" values="M2.5748,1.2874c0,0.711 -0.5764,1.2874 -1.2874,1.2874c-0.711,0 -1.2874,-0.5764 -1.2874,-1.2874c0,-0.711 0.5764,-1.2874 1.2874,-1.2874c0.711,0 1.2874,0.5764 1.2874,1.2874z;M2.5748,1.2874c0,0.711 -0.5764,1.2874 -1.2874,1.2874c-0.711,0 -1.2874,-0.5764 -1.2874,-1.2874c0,-0.711 0.5764,-1.2874 1.2874,-1.2874c0.711,0 1.2874,0.5764 1.2874,1.2874z;M2.57835,1.284c0,0.7129 -0.578,1.2909 -1.2909,1.2909c-0.7129,0 -1.2908,-0.578 -1.2908,-1.2909c0,-0.7129 0.5779,-1.2908 1.2908,-1.2908c0.7129,0 1.2909,0.5779 1.2909,1.2908z;M2.58895,1.2734c0,0.7188 -0.5827,1.3015 -1.3015,1.3015c-0.7188,0 -1.3014,-0.5827 -1.3014,-1.3015c0,-0.7188 0.5826,-1.3014 1.3014,-1.3014c0.7188,0 1.3015,0.5826 1.3015,1.3014z;M2.607,1.2552c0,0.7288 -0.5908,1.3196 -1.3196,1.3196c-0.7288,0 -1.3196,-0.5908 -1.3196,-1.3196c0,-0.7288 0.5908,-1.3196 1.3196,-1.3196c0.7288,0 1.3196,0.5908 1.3196,1.3196z;M2.633,1.2292c0,0.7432 -0.6024,1.3456 -1.3456,1.3456c-0.7432,0 -1.3456,-0.6024 -1.3456,-1.3456c0,-0.7432 0.6024,-1.3456 1.3456,-1.3456c0.7432,0 1.3456,0.6024 1.3456,1.3456z;M2.66695,1.1954c0,0.7619 -0.6176,1.3795 -1.3795,1.3795c-0.7619,0 -1.3794,-0.6176 -1.3794,-1.3795c0,-0.7619 0.6175,-1.3794 1.3794,-1.3794c0.7619,0 1.3795,0.6175 1.3795,1.3794z;M2.70835,1.1539c0,0.7848 -0.6361,1.4209 -1.4209,1.4209c-0.7848,0 -1.421,-0.6361 -1.421,-1.4209c0,-0.7848 0.6362,-1.421 1.421,-1.421c0.7848,0 1.4209,0.6362 1.4209,1.421z;M2.75695,1.1054c0,0.8116 -0.6579,1.4695 -1.4695,1.4695c-0.8116,0 -1.4695,-0.6579 -1.4695,-1.4695c0,-0.8116 0.6579,-1.4695 1.4695,-1.4695c0.8116,0 1.4695,0.6579 1.4695,1.4695z;M2.8113,1.0509c0,0.8416 -0.6823,1.5239 -1.5239,1.5239c-0.8416,0 -1.5239,-0.6823 -1.5239,-1.5239c0,-0.8416 0.6823,-1.5239 1.5239,-1.5239c0.8416,0 1.5239,0.6823 1.5239,1.5239z;M2.87005,0.9921c0,0.8741 -0.7086,1.5827 -1.5827,1.5827c-0.8741,0 -1.5826,-0.7086 -1.5826,-1.5827c0,-0.8741 0.7085,-1.5826 1.5826,-1.5826c0.8741,0 1.5827,0.7085 1.5827,1.5826z;M2.9311,0.9311c0,0.9078 -0.7359,1.6437 -1.6437,1.6437c-0.9078,0 -1.6437,-0.7359 -1.6437,-1.6437c0,-0.9078 0.7359,-1.6437 1.6437,-1.6437c0.9078,0 1.6437,0.7359 1.6437,1.6437z;M2.99225,0.8701c0,0.9415 -0.7633,1.7048 -1.7048,1.7048c-0.9415,0 -1.7048,-0.7633 -1.7048,-1.7048c0,-0.9415 0.7633,-1.7048 1.7048,-1.7048c0.9415,0 1.7048,0.7633 1.7048,1.7048z;M3.0509,0.8113c0,0.974 -0.7895,1.7635 -1.7635,1.7635c-0.974,0 -1.7635,-0.7895 -1.7635,-1.7635c0,-0.974 0.7895,-1.7635 1.7635,-1.7635c0.974,0 1.7635,0.7895 1.7635,1.7635z;M3.10545,0.7569c0,1.0041 -0.8139,1.818 -1.818,1.818c-1.0041,0 -1.818,-0.8139 -1.818,-1.818c0,-1.0041 0.8139,-1.818 1.818,-1.818c1.0041,0 1.818,0.8139 1.818,1.818z;M3.15395,0.7084c0,1.0308 -0.8357,1.8665 -1.8665,1.8665c-1.0308,0 -1.8665,-0.8357 -1.8665,-1.8665c0,-1.0308 0.8357,-1.8665 1.8665,-1.8665c1.0308,0 1.8665,0.8357 1.8665,1.8665z;M3.19545,0.6669c0,1.0538 -0.8542,1.908 -1.908,1.908c-1.0538,0 -1.9079,-0.8542 -1.9079,-1.908c0,-1.0538 0.8541,-1.9079 1.9079,-1.9079c1.0538,0 1.908,0.8541 1.908,1.9079z;M3.2292,0.633c0,1.0725 -0.8693,1.9418 -1.9418,1.9418c-1.0725,0 -1.9418,-0.8693 -1.9418,-1.9418c0,-1.0725 0.8693,-1.9418 1.9418,-1.9418c1.0725,0 1.9418,0.8693 1.9418,1.9418z;M3.2552,0.607c0,1.0868 -0.881,1.9678 -1.9678,1.9678c-1.0868,0 -1.9678,-0.881 -1.9678,-1.9678c0,-1.0868 0.881,-1.9678 1.9678,-1.9678c1.0868,0 1.9678,0.881 1.9678,1.9678z;M3.27345,0.5889c0,1.0968 -0.8892,1.986 -1.986,1.986c-1.0968,0 -1.9859,-0.8892 -1.9859,-1.986c0,-1.0968 0.8891,-1.9859 1.9859,-1.9859c1.0968,0 1.986,0.8891 1.986,1.9859z;M3.28405,0.5783c0,1.1027 -0.8939,1.9966 -1.9966,1.9966c-1.1027,0 -1.9965,-0.8939 -1.9965,-1.9966c0,-1.1027 0.8938,-1.9965 1.9965,-1.9965c1.1027,0 1.9966,0.8938 1.9966,1.9965z;M3.2874,0.5748c0,1.1046 -0.8954,2 -2,2c-1.1046,0 -2,-0.8954 -2,-2c0,-1.1046 0.8954,-2 2,-2c1.1046,0 2,0.8954 2,2z;M3.28405,0.5783c0,1.1027 -0.8939,1.9966 -1.9966,1.9966c-1.1027,0 -1.9965,-0.8939 -1.9965,-1.9966c0,-1.1027 0.8938,-1.9965 1.9965,-1.9965c1.1027,0 1.9966,0.8938 1.9966,1.9965z;M3.27345,0.5889c0,1.0968 -0.8892,1.986 -1.986,1.986c-1.0968,0 -1.9859,-0.8892 -1.9859,-1.986c0,-1.0968 0.8891,-1.9859 1.9859,-1.9859c1.0968,0 1.986,0.8891 1.986,1.9859z;M3.2552,0.607c0,1.0868 -0.881,1.9678 -1.9678,1.9678c-1.0868,0 -1.9678,-0.881 -1.9678,-1.9678c0,-1.0868 0.881,-1.9678 1.9678,-1.9678c1.0868,0 1.9678,0.881 1.9678,1.9678z;M3.2292,0.633c0,1.0725 -0.8693,1.9418 -1.9418,1.9418c-1.0725,0 -1.9418,-0.8693 -1.9418,-1.9418c0,-1.0725 0.8693,-1.9418 1.9418,-1.9418c1.0725,0 1.9418,0.8693 1.9418,1.9418z;M3.19545,0.6669c0,1.0538 -0.8542,1.908 -1.908,1.908c-1.0538,0 -1.9079,-0.8542 -1.9079,-1.908c0,-1.0538 0.8541,-1.9079 1.9079,-1.9079c1.0538,0 1.908,0.8541 1.908,1.9079z;M3.15395,0.7084c0,1.0308 -0.8357,1.8665 -1.8665,1.8665c-1.0308,0 -1.8665,-0.8357 -1.8665,-1.8665c0,-1.0308 0.8357,-1.8665 1.8665,-1.8665c1.0308,0 1.8665,0.8357 1.8665,1.8665z;M3.10545,0.7569c0,1.0041 -0.8139,1.818 -1.818,1.818c-1.0041,0 -1.818,-0.8139 -1.818,-1.818c0,-1.0041 0.8139,-1.818 1.818,-1.818c1.0041,0 1.818,0.8139 1.818,1.818z;M3.0509,0.8113c0,0.974 -0.7895,1.7635 -1.7635,1.7635c-0.974,0 -1.7635,-0.7895 -1.7635,-1.7635c0,-0.974 0.7895,-1.7635 1.7635,-1.7635c0.974,0 1.7635,0.7895 1.7635,1.7635z;M2.99225,0.8701c0,0.9415 -0.7633,1.7048 -1.7048,1.7048c-0.9415,0 -1.7048,-0.7633 -1.7048,-1.7048c0,-0.9415 0.7633,-1.7048 1.7048,-1.7048c0.9415,0 1.7048,0.7633 1.7048,1.7048z;M2.9311,0.9311c0,0.9078 -0.7359,1.6437 -1.6437,1.6437c-0.9078,0 -1.6437,-0.7359 -1.6437,-1.6437c0,-0.9078 0.7359,-1.6437 1.6437,-1.6437c0.9078,0 1.6437,0.7359 1.6437,1.6437z;M2.87005,0.9921c0,0.8741 -0.7086,1.5827 -1.5827,1.5827c-0.8741,0 -1.5826,-0.7086 -1.5826,-1.5827c0,-0.8741 0.7085,-1.5826 1.5826,-1.5826c0.8741,0 1.5827,0.7085 1.5827,1.5826z;M2.8113,1.0509c0,0.8416 -0.6823,1.5239 -1.5239,1.5239c-0.8416,0 -1.5239,-0.6823 -1.5239,-1.5239c0,-0.8416 0.6823,-1.5239 1.5239,-1.5239c0.8416,0 1.5239,0.6823 1.5239,1.5239z;M2.75695,1.1054c0,0.8116 -0.6579,1.4695 -1.4695,1.4695c-0.8116,0 -1.4695,-0.6579 -1.4695,-1.4695c0,-0.8116 0.6579,-1.4695 1.4695,-1.4695c0.8116,0 1.4695,0.6579 1.4695,1.4695z;M2.70835,1.1539c0,0.7848 -0.6361,1.4209 -1.4209,1.4209c-0.7848,0 -1.421,-0.6361 -1.421,-1.4209c0,-0.7848 0.6362,-1.421 1.421,-1.421c0.7848,0 1.4209,0.6362 1.4209,1.421z;M2.66695,1.1954c0,0.7619 -0.6176,1.3795 -1.3795,1.3795c-0.7619,0 -1.3794,-0.6176 -1.3794,-1.3795c0,-0.7619 0.6175,-1.3794 1.3794,-1.3794c0.7619,0 1.3795,0.6175 1.3795,1.3794z;M2.633,1.2292c0,0.7432 -0.6024,1.3456 -1.3456,1.3456c-0.7432,0 -1.3456,-0.6024 -1.3456,-1.3456c0,-0.7432 0.6024,-1.3456 1.3456,-1.3456c0.7432,0 1.3456,0.6024 1.3456,1.3456z;M2.607,1.2552c0,0.7288 -0.5908,1.3196 -1.3196,1.3196c-0.7288,0 -1.3196,-0.5908 -1.3196,-1.3196c0,-0.7288 0.5908,-1.3196 1.3196,-1.3196c0.7288,0 1.3196,0.5908 1.3196,1.3196z;M2.58895,1.2734c0,0.7188 -0.5827,1.3015 -1.3015,1.3015c-0.7188,0 -1.3014,-0.5827 -1.3014,-1.3015c0,-0.7188 0.5826,-1.3014 1.3014,-1.3014c0.7188,0 1.3015,0.5826 1.3015,1.3014z;M2.57835,1.284c0,0.7129 -0.578,1.2909 -1.2909,1.2909c-0.7129,0 -1.2908,-0.578 -1.2908,-1.2909c0,-0.7129 0.5779,-1.2908 1.2908,-1.2908c0.7129,0 1.2909,0.5779 1.2909,1.2908z;M2.5748,1.2874c0,0.711 -0.5764,1.2874 -1.2874,1.2874c-0.711,0 -1.2874,-0.5764 -1.2874,-1.2874c0,-0.711 0.5764,-1.2874 1.2874,-1.2874c0.711,0 1.2874,0.5764 1.2874,1.2874z;M2.5748,1.2874c0,0.711 -0.5764,1.2874 -1.2874,1.2874c-0.711,0 -1.2874,-0.5764 -1.2874,-1.2874c0,-0.711 0.5764,-1.2874 1.2874,-1.2874c0.711,0 1.2874,0.5764 1.2874,1.2874z" dur="11.2s" repeatCount="indefinite" keyTimes="0;0.71;0.72;0.72;0.72;0.72;0.72;0.73;0.73;0.73;0.73;0.73;0.73;0.74;0.74;0.74;0.74;0.74;0.74;0.75;0.75;0.75;0.75;0.75;0.76;0.76;0.76;0.76;0.76;0.76;0.77;0.77;0.77;0.77;0.77;0.78;0.78;0.78;0.78;0.78;0.78;0.79;1" fill="freeze"></animate><animate href="#95:42_fill_path" attributeName="fill" values="rgb(255, 255, 255;rgb(255, 255, 255;rgb(255, 255, 255;rgb(255, 255, 255;rgb(255, 255, 255;rgb(255, 255, 255" dur="11.2s" repeatCount="indefinite" keyTimes="0;0.68;0.75;0.86;0.93;1" fill="freeze"></animate><animate href="#95:42_fill_path" attributeName="fill-opacity" values="0;0;1;1;0;0" dur="11.2s" repeatCount="indefinite" keyTimes="0;0.68;0.75;0.86;0.93;1" fill="freeze"></animate><animate href="#95:42_fill_path" attributeName="d" values="M2.5748,1.2874c0,0.711 -0.5764,1.2874 -1.2874,1.2874c-0.711,0 -1.2874,-0.5764 -1.2874,-1.2874c0,-0.711 0.5764,-1.2874 1.2874,-1.2874c0.711,0 1.2874,0.5764 1.2874,1.2874z;M2.5748,1.2874c0,0.711 -0.5764,1.2874 -1.2874,1.2874c-0.711,0 -1.2874,-0.5764 -1.2874,-1.2874c0,-0.711 0.5764,-1.2874 1.2874,-1.2874c0.711,0 1.2874,0.5764 1.2874,1.2874z;M2.57835,1.284c0,0.7129 -0.578,1.2909 -1.2909,1.2909c-0.7129,0 -1.2908,-0.578 -1.2908,-1.2909c0,-0.7129 0.5779,-1.2908 1.2908,-1.2908c0.7129,0 1.2909,0.5779 1.2909,1.2908z;M2.58895,1.2734c0,0.7188 -0.5827,1.3015 -1.3015,1.3015c-0.7188,0 -1.3014,-0.5827 -1.3014,-1.3015c0,-0.7188 0.5826,-1.3014 1.3014,-1.3014c0.7188,0 1.3015,0.5826 1.3015,1.3014z;M2.607,1.2552c0,0.7288 -0.5908,1.3196 -1.3196,1.3196c-0.7288,0 -1.3196,-0.5908 -1.3196,-1.3196c0,-0.7288 0.5908,-1.3196 1.3196,-1.3196c0.7288,0 1.3196,0.5908 1.3196,1.3196z;M2.633,1.2292c0,0.7432 -0.6024,1.3456 -1.3456,1.3456c-0.7432,0 -1.3456,-0.6024 -1.3456,-1.3456c0,-0.7432 0.6024,-1.3456 1.3456,-1.3456c0.7432,0 1.3456,0.6024 1.3456,1.3456z;M2.66695,1.1954c0,0.7619 -0.6176,1.3795 -1.3795,1.3795c-0.7619,0 -1.3794,-0.6176 -1.3794,-1.3795c0,-0.7619 0.6175,-1.3794 1.3794,-1.3794c0.7619,0 1.3795,0.6175 1.3795,1.3794z;M2.70835,1.1539c0,0.7848 -0.6361,1.4209 -1.4209,1.4209c-0.7848,0 -1.421,-0.6361 -1.421,-1.4209c0,-0.7848 0.6362,-1.421 1.421,-1.421c0.7848,0 1.4209,0.6362 1.4209,1.421z;M2.75695,1.1054c0,0.8116 -0.6579,1.4695 -1.4695,1.4695c-0.8116,0 -1.4695,-0.6579 -1.4695,-1.4695c0,-0.8116 0.6579,-1.4695 1.4695,-1.4695c0.8116,0 1.4695,0.6579 1.4695,1.4695z;M2.8113,1.0509c0,0.8416 -0.6823,1.5239 -1.5239,1.5239c-0.8416,0 -1.5239,-0.6823 -1.5239,-1.5239c0,-0.8416 0.6823,-1.5239 1.5239,-1.5239c0.8416,0 1.5239,0.6823 1.5239,1.5239z;M2.87005,0.9921c0,0.8741 -0.7086,1.5827 -1.5827,1.5827c-0.8741,0 -1.5826,-0.7086 -1.5826,-1.5827c0,-0.8741 0.7085,-1.5826 1.5826,-1.5826c0.8741,0 1.5827,0.7085 1.5827,1.5826z;M2.9311,0.9311c0,0.9078 -0.7359,1.6437 -1.6437,1.6437c-0.9078,0 -1.6437,-0.7359 -1.6437,-1.6437c0,-0.9078 0.7359,-1.6437 1.6437,-1.6437c0.9078,0 1.6437,0.7359 1.6437,1.6437z;M2.99225,0.8701c0,0.9415 -0.7633,1.7048 -1.7048,1.7048c-0.9415,0 -1.7048,-0.7633 -1.7048,-1.7048c0,-0.9415 0.7633,-1.7048 1.7048,-1.7048c0.9415,0 1.7048,0.7633 1.7048,1.7048z;M3.0509,0.8113c0,0.974 -0.7895,1.7635 -1.7635,1.7635c-0.974,0 -1.7635,-0.7895 -1.7635,-1.7635c0,-0.974 0.7895,-1.7635 1.7635,-1.7635c0.974,0 1.7635,0.7895 1.7635,1.7635z;M3.10545,0.7569c0,1.0041 -0.8139,1.818 -1.818,1.818c-1.0041,0 -1.818,-0.8139 -1.818,-1.818c0,-1.0041 0.8139,-1.818 1.818,-1.818c1.0041,0 1.818,0.8139 1.818,1.818z;M3.15395,0.7084c0,1.0308 -0.8357,1.8665 -1.8665,1.8665c-1.0308,0 -1.8665,-0.8357 -1.8665,-1.8665c0,-1.0308 0.8357,-1.8665 1.8665,-1.8665c1.0308,0 1.8665,0.8357 1.8665,1.8665z;M3.19545,0.6669c0,1.0538 -0.8542,1.908 -1.908,1.908c-1.0538,0 -1.9079,-0.8542 -1.9079,-1.908c0,-1.0538 0.8541,-1.9079 1.9079,-1.9079c1.0538,0 1.908,0.8541 1.908,1.9079z;M3.2292,0.633c0,1.0725 -0.8693,1.9418 -1.9418,1.9418c-1.0725,0 -1.9418,-0.8693 -1.9418,-1.9418c0,-1.0725 0.8693,-1.9418 1.9418,-1.9418c1.0725,0 1.9418,0.8693 1.9418,1.9418z;M3.2552,0.607c0,1.0868 -0.881,1.9678 -1.9678,1.9678c-1.0868,0 -1.9678,-0.881 -1.9678,-1.9678c0,-1.0868 0.881,-1.9678 1.9678,-1.9678c1.0868,0 1.9678,0.881 1.9678,1.9678z;M3.27345,0.5889c0,1.0968 -0.8892,1.986 -1.986,1.986c-1.0968,0 -1.9859,-0.8892 -1.9859,-1.986c0,-1.0968 0.8891,-1.9859 1.9859,-1.9859c1.0968,0 1.986,0.8891 1.986,1.9859z;M3.28405,0.5783c0,1.1027 -0.8939,1.9966 -1.9966,1.9966c-1.1027,0 -1.9965,-0.8939 -1.9965,-1.9966c0,-1.1027 0.8938,-1.9965 1.9965,-1.9965c1.1027,0 1.9966,0.8938 1.9966,1.9965z;M3.2874,0.5748c0,1.1046 -0.8954,2 -2,2c-1.1046,0 -2,-0.8954 -2,-2c0,-1.1046 0.8954,-2 2,-2c1.1046,0 2,0.8954 2,2z;M3.28405,0.5783c0,1.1027 -0.8939,1.9966 -1.9966,1.9966c-1.1027,0 -1.9965,-0.8939 -1.9965,-1.9966c0,-1.1027 0.8938,-1.9965 1.9965,-1.9965c1.1027,0 1.9966,0.8938 1.9966,1.9965z;M3.27345,0.5889c0,1.0968 -0.8892,1.986 -1.986,1.986c-1.0968,0 -1.9859,-0.8892 -1.9859,-1.986c0,-1.0968 0.8891,-1.9859 1.9859,-1.9859c1.0968,0 1.986,0.8891 1.986,1.9859z;M3.2552,0.607c0,1.0868 -0.881,1.9678 -1.9678,1.9678c-1.0868,0 -1.9678,-0.881 -1.9678,-1.9678c0,-1.0868 0.881,-1.9678 1.9678,-1.9678c1.0868,0 1.9678,0.881 1.9678,1.9678z;M3.2292,0.633c0,1.0725 -0.8693,1.9418 -1.9418,1.9418c-1.0725,0 -1.9418,-0.8693 -1.9418,-1.9418c0,-1.0725 0.8693,-1.9418 1.9418,-1.9418c1.0725,0 1.9418,0.8693 1.9418,1.9418z;M3.19545,0.6669c0,1.0538 -0.8542,1.908 -1.908,1.908c-1.0538,0 -1.9079,-0.8542 -1.9079,-1.908c0,-1.0538 0.8541,-1.9079 1.9079,-1.9079c1.0538,0 1.908,0.8541 1.908,1.9079z;M3.15395,0.7084c0,1.0308 -0.8357,1.8665 -1.8665,1.8665c-1.0308,0 -1.8665,-0.8357 -1.8665,-1.8665c0,-1.0308 0.8357,-1.8665 1.8665,-1.8665c1.0308,0 1.8665,0.8357 1.8665,1.8665z;M3.10545,0.7569c0,1.0041 -0.8139,1.818 -1.818,1.818c-1.0041,0 -1.818,-0.8139 -1.818,-1.818c0,-1.0041 0.8139,-1.818 1.818,-1.818c1.0041,0 1.818,0.8139 1.818,1.818z;M3.0509,0.8113c0,0.974 -0.7895,1.7635 -1.7635,1.7635c-0.974,0 -1.7635,-0.7895 -1.7635,-1.7635c0,-0.974 0.7895,-1.7635 1.7635,-1.7635c0.974,0 1.7635,0.7895 1.7635,1.7635z;M2.99225,0.8701c0,0.9415 -0.7633,1.7048 -1.7048,1.7048c-0.9415,0 -1.7048,-0.7633 -1.7048,-1.7048c0,-0.9415 0.7633,-1.7048 1.7048,-1.7048c0.9415,0 1.7048,0.7633 1.7048,1.7048z;M2.9311,0.9311c0,0.9078 -0.7359,1.6437 -1.6437,1.6437c-0.9078,0 -1.6437,-0.7359 -1.6437,-1.6437c0,-0.9078 0.7359,-1.6437 1.6437,-1.6437c0.9078,0 1.6437,0.7359 1.6437,1.6437z;M2.87005,0.9921c0,0.8741 -0.7086,1.5827 -1.5827,1.5827c-0.8741,0 -1.5826,-0.7086 -1.5826,-1.5827c0,-0.8741 0.7085,-1.5826 1.5826,-1.5826c0.8741,0 1.5827,0.7085 1.5827,1.5826z;M2.8113,1.0509c0,0.8416 -0.6823,1.5239 -1.5239,1.5239c-0.8416,0 -1.5239,-0.6823 -1.5239,-1.5239c0,-0.8416 0.6823,-1.5239 1.5239,-1.5239c0.8416,0 1.5239,0.6823 1.5239,1.5239z;M2.75695,1.1054c0,0.8116 -0.6579,1.4695 -1.4695,1.4695c-0.8116,0 -1.4695,-0.6579 -1.4695,-1.4695c0,-0.8116 0.6579,-1.4695 1.4695,-1.4695c0.8116,0 1.4695,0.6579 1.4695,1.4695z;M2.70835,1.1539c0,0.7848 -0.6361,1.4209 -1.4209,1.4209c-0.7848,0 -1.421,-0.6361 -1.421,-1.4209c0,-0.7848 0.6362,-1.421 1.421,-1.421c0.7848,0 1.4209,0.6362 1.4209,1.421z;M2.66695,1.1954c0,0.7619 -0.6176,1.3795 -1.3795,1.3795c-0.7619,0 -1.3794,-0.6176 -1.3794,-1.3795c0,-0.7619 0.6175,-1.3794 1.3794,-1.3794c0.7619,0 1.3795,0.6175 1.3795,1.3794z;M2.633,1.2292c0,0.7432 -0.6024,1.3456 -1.3456,1.3456c-0.7432,0 -1.3456,-0.6024 -1.3456,-1.3456c0,-0.7432 0.6024,-1.3456 1.3456,-1.3456c0.7432,0 1.3456,0.6024 1.3456,1.3456z;M2.607,1.2552c0,0.7288 -0.5908,1.3196 -1.3196,1.3196c-0.7288,0 -1.3196,-0.5908 -1.3196,-1.3196c0,-0.7288 0.5908,-1.3196 1.3196,-1.3196c0.7288,0 1.3196,0.5908 1.3196,1.3196z;M2.58895,1.2734c0,0.7188 -0.5827,1.3015 -1.3015,1.3015c-0.7188,0 -1.3014,-0.5827 -1.3014,-1.3015c0,-0.7188 0.5826,-1.3014 1.3014,-1.3014c0.7188,0 1.3015,0.5826 1.3015,1.3014z;M2.57835,1.284c0,0.7129 -0.578,1.2909 -1.2909,1.2909c-0.7129,0 -1.2908,-0.578 -1.2908,-1.2909c0,-0.7129 0.5779,-1.2908 1.2908,-1.2908c0.7129,0 1.2909,0.5779 1.2909,1.2908z;M2.5748,1.2874c0,0.711 -0.5764,1.2874 -1.2874,1.2874c-0.711,0 -1.2874,-0.5764 -1.2874,-1.2874c0,-0.711 0.5764,-1.2874 1.2874,-1.2874c0.711,0 1.2874,0.5764 1.2874,1.2874z;M2.5748,1.2874c0,0.711 -0.5764,1.2874 -1.2874,1.2874c-0.711,0 -1.2874,-0.5764 -1.2874,-1.2874c0,-0.711 0.5764,-1.2874 1.2874,-1.2874c0.711,0 1.2874,0.5764 1.2874,1.2874z" dur="11.2s" repeatCount="indefinite" keyTimes="0;0.77;0.77;0.77;0.77;0.78;0.78;0.78;0.78;0.78;0.78;0.79;0.79;0.79;0.79;0.79;0.79;0.8;0.8;0.8;0.8;0.8;0.81;0.81;0.81;0.81;0.81;0.81;0.82;0.82;0.82;0.82;0.82;0.83;0.83;0.83;0.83;0.83;0.83;0.84;0.84;0.84;1" fill="freeze"></animate><animate href="#95:43_fill_path" attributeName="fill" values="rgb(255, 255, 255;rgb(255, 255, 255;rgb(255, 255, 255;rgb(255, 255, 255;rgb(255, 255, 255;rgb(255, 255, 255" dur="11.2s" repeatCount="indefinite" keyTimes="0;0.68;0.75;0.86;0.93;1" fill="freeze"></animate><animate href="#95:43_fill_path" attributeName="fill-opacity" values="0;0;1;1;0;0" dur="11.2s" repeatCount="indefinite" keyTimes="0;0.68;0.75;0.86;0.93;1" fill="freeze"></animate><animate href="#95:43_fill_path" attributeName="d" values="M2.5748,1.2874c0,0.711 -0.5764,1.2874 -1.2874,1.2874c-0.711,0 -1.2874,-0.5764 -1.2874,-1.2874c0,-0.711 0.5764,-1.2874 1.2874,-1.2874c0.711,0 1.2874,0.5764 1.2874,1.2874z;M2.5748,1.2874c0,0.711 -0.5764,1.2874 -1.2874,1.2874c-0.711,0 -1.2874,-0.5764 -1.2874,-1.2874c0,-0.711 0.5764,-1.2874 1.2874,-1.2874c0.711,0 1.2874,0.5764 1.2874,1.2874z;M2.57835,1.284c0,0.7129 -0.578,1.2909 -1.2909,1.2909c-0.7129,0 -1.2908,-0.578 -1.2908,-1.2909c0,-0.7129 0.5779,-1.2908 1.2908,-1.2908c0.7129,0 1.2909,0.5779 1.2909,1.2908z;M2.58895,1.2734c0,0.7188 -0.5827,1.3015 -1.3015,1.3015c-0.7188,0 -1.3014,-0.5827 -1.3014,-1.3015c0,-0.7188 0.5826,-1.3014 1.3014,-1.3014c0.7188,0 1.3015,0.5826 1.3015,1.3014z;M2.607,1.2552c0,0.7288 -0.5908,1.3196 -1.3196,1.3196c-0.7288,0 -1.3196,-0.5908 -1.3196,-1.3196c0,-0.7288 0.5908,-1.3196 1.3196,-1.3196c0.7288,0 1.3196,0.5908 1.3196,1.3196z;M2.633,1.2292c0,0.7432 -0.6024,1.3456 -1.3456,1.3456c-0.7432,0 -1.3456,-0.6024 -1.3456,-1.3456c0,-0.7432 0.6024,-1.3456 1.3456,-1.3456c0.7432,0 1.3456,0.6024 1.3456,1.3456z;M2.66695,1.1954c0,0.7619 -0.6176,1.3795 -1.3795,1.3795c-0.7619,0 -1.3794,-0.6176 -1.3794,-1.3795c0,-0.7619 0.6175,-1.3794 1.3794,-1.3794c0.7619,0 1.3795,0.6175 1.3795,1.3794z;M2.70835,1.1539c0,0.7848 -0.6361,1.4209 -1.4209,1.4209c-0.7848,0 -1.421,-0.6361 -1.421,-1.4209c0,-0.7848 0.6362,-1.421 1.421,-1.421c0.7848,0 1.4209,0.6362 1.4209,1.421z;M2.75695,1.1054c0,0.8116 -0.6579,1.4695 -1.4695,1.4695c-0.8116,0 -1.4695,-0.6579 -1.4695,-1.4695c0,-0.8116 0.6579,-1.4695 1.4695,-1.4695c0.8116,0 1.4695,0.6579 1.4695,1.4695z;M2.8113,1.0509c0,0.8416 -0.6823,1.5239 -1.5239,1.5239c-0.8416,0 -1.5239,-0.6823 -1.5239,-1.5239c0,-0.8416 0.6823,-1.5239 1.5239,-1.5239c0.8416,0 1.5239,0.6823 1.5239,1.5239z;M2.87005,0.9921c0,0.8741 -0.7086,1.5827 -1.5827,1.5827c-0.8741,0 -1.5826,-0.7086 -1.5826,-1.5827c0,-0.8741 0.7085,-1.5826 1.5826,-1.5826c0.8741,0 1.5827,0.7085 1.5827,1.5826z;M2.9311,0.9311c0,0.9078 -0.7359,1.6437 -1.6437,1.6437c-0.9078,0 -1.6437,-0.7359 -1.6437,-1.6437c0,-0.9078 0.7359,-1.6437 1.6437,-1.6437c0.9078,0 1.6437,0.7359 1.6437,1.6437z;M2.99225,0.8701c0,0.9415 -0.7633,1.7048 -1.7048,1.7048c-0.9415,0 -1.7048,-0.7633 -1.7048,-1.7048c0,-0.9415 0.7633,-1.7048 1.7048,-1.7048c0.9415,0 1.7048,0.7633 1.7048,1.7048z;M3.0509,0.8113c0,0.974 -0.7895,1.7635 -1.7635,1.7635c-0.974,0 -1.7635,-0.7895 -1.7635,-1.7635c0,-0.974 0.7895,-1.7635 1.7635,-1.7635c0.974,0 1.7635,0.7895 1.7635,1.7635z;M3.10545,0.7569c0,1.0041 -0.8139,1.818 -1.818,1.818c-1.0041,0 -1.818,-0.8139 -1.818,-1.818c0,-1.0041 0.8139,-1.818 1.818,-1.818c1.0041,0 1.818,0.8139 1.818,1.818z;M3.15395,0.7084c0,1.0308 -0.8357,1.8665 -1.8665,1.8665c-1.0308,0 -1.8665,-0.8357 -1.8665,-1.8665c0,-1.0308 0.8357,-1.8665 1.8665,-1.8665c1.0308,0 1.8665,0.8357 1.8665,1.8665z;M3.19545,0.6669c0,1.0538 -0.8542,1.908 -1.908,1.908c-1.0538,0 -1.9079,-0.8542 -1.9079,-1.908c0,-1.0538 0.8541,-1.9079 1.9079,-1.9079c1.0538,0 1.908,0.8541 1.908,1.9079z;M3.2292,0.633c0,1.0725 -0.8693,1.9418 -1.9418,1.9418c-1.0725,0 -1.9418,-0.8693 -1.9418,-1.9418c0,-1.0725 0.8693,-1.9418 1.9418,-1.9418c1.0725,0 1.9418,0.8693 1.9418,1.9418z;M3.2552,0.607c0,1.0868 -0.881,1.9678 -1.9678,1.9678c-1.0868,0 -1.9678,-0.881 -1.9678,-1.9678c0,-1.0868 0.881,-1.9678 1.9678,-1.9678c1.0868,0 1.9678,0.881 1.9678,1.9678z;M3.27345,0.5889c0,1.0968 -0.8892,1.986 -1.986,1.986c-1.0968,0 -1.9859,-0.8892 -1.9859,-1.986c0,-1.0968 0.8891,-1.9859 1.9859,-1.9859c1.0968,0 1.986,0.8891 1.986,1.9859z;M3.28405,0.5783c0,1.1027 -0.8939,1.9966 -1.9966,1.9966c-1.1027,0 -1.9965,-0.8939 -1.9965,-1.9966c0,-1.1027 0.8938,-1.9965 1.9965,-1.9965c1.1027,0 1.9966,0.8938 1.9966,1.9965z;M3.2874,0.5748c0,1.1046 -0.8954,2 -2,2c-1.1046,0 -2,-0.8954 -2,-2c0,-1.1046 0.8954,-2 2,-2c1.1046,0 2,0.8954 2,2z;M3.28405,0.5783c0,1.1027 -0.8939,1.9966 -1.9966,1.9966c-1.1027,0 -1.9965,-0.8939 -1.9965,-1.9966c0,-1.1027 0.8938,-1.9965 1.9965,-1.9965c1.1027,0 1.9966,0.8938 1.9966,1.9965z;M3.27345,0.5889c0,1.0968 -0.8892,1.986 -1.986,1.986c-1.0968,0 -1.9859,-0.8892 -1.9859,-1.986c0,-1.0968 0.8891,-1.9859 1.9859,-1.9859c1.0968,0 1.986,0.8891 1.986,1.9859z;M3.2552,0.607c0,1.0868 -0.881,1.9678 -1.9678,1.9678c-1.0868,0 -1.9678,-0.881 -1.9678,-1.9678c0,-1.0868 0.881,-1.9678 1.9678,-1.9678c1.0868,0 1.9678,0.881 1.9678,1.9678z;M3.2292,0.633c0,1.0725 -0.8693,1.9418 -1.9418,1.9418c-1.0725,0 -1.9418,-0.8693 -1.9418,-1.9418c0,-1.0725 0.8693,-1.9418 1.9418,-1.9418c1.0725,0 1.9418,0.8693 1.9418,1.9418z;M3.19545,0.6669c0,1.0538 -0.8542,1.908 -1.908,1.908c-1.0538,0 -1.9079,-0.8542 -1.9079,-1.908c0,-1.0538 0.8541,-1.9079 1.9079,-1.9079c1.0538,0 1.908,0.8541 1.908,1.9079z;M3.15395,0.7084c0,1.0308 -0.8357,1.8665 -1.8665,1.8665c-1.0308,0 -1.8665,-0.8357 -1.8665,-1.8665c0,-1.0308 0.8357,-1.8665 1.8665,-1.8665c1.0308,0 1.8665,0.8357 1.8665,1.8665z;M3.10545,0.7569c0,1.0041 -0.8139,1.818 -1.818,1.818c-1.0041,0 -1.818,-0.8139 -1.818,-1.818c0,-1.0041 0.8139,-1.818 1.818,-1.818c1.0041,0 1.818,0.8139 1.818,1.818z;M3.0509,0.8113c0,0.974 -0.7895,1.7635 -1.7635,1.7635c-0.974,0 -1.7635,-0.7895 -1.7635,-1.7635c0,-0.974 0.7895,-1.7635 1.7635,-1.7635c0.974,0 1.7635,0.7895 1.7635,1.7635z;M2.99225,0.8701c0,0.9415 -0.7633,1.7048 -1.7048,1.7048c-0.9415,0 -1.7048,-0.7633 -1.7048,-1.7048c0,-0.9415 0.7633,-1.7048 1.7048,-1.7048c0.9415,0 1.7048,0.7633 1.7048,1.7048z;M2.9311,0.9311c0,0.9078 -0.7359,1.6437 -1.6437,1.6437c-0.9078,0 -1.6437,-0.7359 -1.6437,-1.6437c0,-0.9078 0.7359,-1.6437 1.6437,-1.6437c0.9078,0 1.6437,0.7359 1.6437,1.6437z;M2.87005,0.9921c0,0.8741 -0.7086,1.5827 -1.5827,1.5827c-0.8741,0 -1.5826,-0.7086 -1.5826,-1.5827c0,-0.8741 0.7085,-1.5826 1.5826,-1.5826c0.8741,0 1.5827,0.7085 1.5827,1.5826z;M2.8113,1.0509c0,0.8416 -0.6823,1.5239 -1.5239,1.5239c-0.8416,0 -1.5239,-0.6823 -1.5239,-1.5239c0,-0.8416 0.6823,-1.5239 1.5239,-1.5239c0.8416,0 1.5239,0.6823 1.5239,1.5239z;M2.75695,1.1054c0,0.8116 -0.6579,1.4695 -1.4695,1.4695c-0.8116,0 -1.4695,-0.6579 -1.4695,-1.4695c0,-0.8116 0.6579,-1.4695 1.4695,-1.4695c0.8116,0 1.4695,0.6579 1.4695,1.4695z;M2.70835,1.1539c0,0.7848 -0.6361,1.4209 -1.4209,1.4209c-0.7848,0 -1.421,-0.6361 -1.421,-1.4209c0,-0.7848 0.6362,-1.421 1.421,-1.421c0.7848,0 1.4209,0.6362 1.4209,1.421z;M2.66695,1.1954c0,0.7619 -0.6176,1.3795 -1.3795,1.3795c-0.7619,0 -1.3794,-0.6176 -1.3794,-1.3795c0,-0.7619 0.6175,-1.3794 1.3794,-1.3794c0.7619,0 1.3795,0.6175 1.3795,1.3794z;M2.633,1.2292c0,0.7432 -0.6024,1.3456 -1.3456,1.3456c-0.7432,0 -1.3456,-0.6024 -1.3456,-1.3456c0,-0.7432 0.6024,-1.3456 1.3456,-1.3456c0.7432,0 1.3456,0.6024 1.3456,1.3456z;M2.607,1.2552c0,0.7288 -0.5908,1.3196 -1.3196,1.3196c-0.7288,0 -1.3196,-0.5908 -1.3196,-1.3196c0,-0.7288 0.5908,-1.3196 1.3196,-1.3196c0.7288,0 1.3196,0.5908 1.3196,1.3196z;M2.58895,1.2734c0,0.7188 -0.5827,1.3015 -1.3015,1.3015c-0.7188,0 -1.3014,-0.5827 -1.3014,-1.3015c0,-0.7188 0.5826,-1.3014 1.3014,-1.3014c0.7188,0 1.3015,0.5826 1.3015,1.3014z;M2.57835,1.284c0,0.7129 -0.578,1.2909 -1.2909,1.2909c-0.7129,0 -1.2908,-0.578 -1.2908,-1.2909c0,-0.7129 0.5779,-1.2908 1.2908,-1.2908c0.7129,0 1.2909,0.5779 1.2909,1.2908z;M2.5748,1.2874c0,0.711 -0.5764,1.2874 -1.2874,1.2874c-0.711,0 -1.2874,-0.5764 -1.2874,-1.2874c0,-0.711 0.5764,-1.2874 1.2874,-1.2874c0.711,0 1.2874,0.5764 1.2874,1.2874z;M2.5748,1.2874c0,0.711 -0.5764,1.2874 -1.2874,1.2874c-0.711,0 -1.2874,-0.5764 -1.2874,-1.2874c0,-0.711 0.5764,-1.2874 1.2874,-1.2874c0.711,0 1.2874,0.5764 1.2874,1.2874z" dur="11.2s" repeatCount="indefinite" keyTimes="0;0.82;0.82;0.83;0.83;0.83;0.83;0.83;0.83;0.84;0.84;0.84;0.84;0.84;0.84;0.85;0.85;0.85;0.85;0.85;0.86;0.86;0.86;0.86;0.86;0.86;0.87;0.87;0.87;0.87;0.87;0.88;0.88;0.88;0.88;0.88;0.88;0.89;0.89;0.89;0.89;0.89;1" fill="freeze"></animate><animate href="#95:36_fill_path" attributeName="fill" values="rgb(255, 255, 255;rgb(255, 255, 255;rgb(255, 255, 255;rgb(255, 255, 255;rgb(255, 255, 255;rgb(255, 255, 255" dur="11.2s" repeatCount="indefinite" keyTimes="0;0.43;0.5;0.61;0.68;1" fill="freeze"></animate><animate href="#95:36_fill_path" attributeName="fill-opacity" values="0;0;1;1;0;0" dur="11.2s" repeatCount="indefinite" keyTimes="0;0.43;0.5;0.61;0.68;1" fill="freeze"></animate><animate href="#95:61_fill_path" attributeName="fill" values="rgb(255, 255, 255;rgb(255, 255, 255;rgb(255, 255, 255;rgb(255, 255, 255;rgb(255, 255, 255;rgb(255, 255, 255" dur="11.2s" repeatCount="indefinite" keyTimes="0;0.18;0.25;0.36;0.43;1" fill="freeze"></animate><animate href="#95:61_fill_path" attributeName="fill-opacity" values="0;0;1;1;0;0" dur="11.2s" repeatCount="indefinite" keyTimes="0;0.18;0.25;0.36;0.43;1" fill="freeze"></animate><animate href="#95:60_fill_path" attributeName="fill" values="rgb(255, 255, 255;rgb(255, 255, 255;rgb(255, 255, 255;rgb(255, 255, 255;rgb(255, 255, 255" dur="11.2s" repeatCount="indefinite" keyTimes="0;0.11;0.18;0.93;1" fill="freeze"></animate><animate href="#95:60_fill_path" attributeName="fill-opacity" values="1;1;0;0;1" dur="11.2s" repeatCount="indefinite" keyTimes="0;0.11;0.18;0.93;1" fill="freeze"></animate></svg>