<?xml version="1.0" encoding="UTF-8"?>
<svg id="Layer_1" data-name="Layer 1" xmlns="http://www.w3.org/2000/svg" viewBox="0 0 180 180">
  <defs>
    <style>
      .cls-1 {
        fill: #e7bf39;
      }

      .cls-1, .cls-2 {
        stroke-width: 0px;
      }

      .cls-2 {
        fill: #191919;
      }
    </style>
  </defs>
  <path class="cls-1" d="m129.39,139.38c.12,1.51-.53,2.36-1.98,2.55-1.45.19-3.34-.07-5.66-.76-2.33-.69-4.75-1.64-7.26-2.83-2.52-1.2-4.72-2.36-6.6-3.49-2.39-.63-5.72-2.96-10-6.98-4.28-4.02-8.87-8.93-13.77-14.71-5.03,2.77-9.12,5-12.26,6.7-3.15,1.7-6.01,3.08-8.58,4.15-2.58,1.07-5.63,2.11-9.15,3.11-8.3.75-15.91-.06-22.83-2.45-1.01-.38-2.3-1.13-3.87-2.26-1.57-1.13-3.11-2.33-4.62-3.58-1.51-1.26-2.58-2.2-3.21-2.83-.63-.38-.94-1.23-.94-2.55s.12-2.67.38-4.06c.25-1.38.44-2.26.57-2.64.38-1.13,1.48-3.11,3.3-5.94,1.82-2.83,4.15-6.13,6.98-9.9,2.83-3.77,5.91-7.61,9.24-11.51,3.33-3.9,6.63-7.48,9.9-10.75-3.02-4.4-5.09-8.58-6.23-12.54-1.13-3.96-1.1-8.27.09-12.92,1.19-4.65,3.55-10.12,7.07-16.41,1.26-2.01,2.83-4.12,4.72-6.32,1.89-2.2,3.8-4.27,5.75-6.22,1.95-1.95,3.65-3.46,5.09-4.53,1.44-1.07,2.23-1.48,2.36-1.23.5.88,1.01,1.2,1.51.94.5-.25,1.01-.38,1.51-.38.5-.25,1.44-.34,2.83-.28,1.38.07,2.99.22,4.81.47,1.82.25,3.55.69,5.19,1.32,4.53.5,7.7,1.01,9.53,1.51,1.82.5,3.49,1.64,5,3.4,1.89,1.39,3.33,2.77,4.34,4.15,1.01,1.39,1.73,2.74,2.17,4.06.44,1.32.66,2.55.66,3.68,0,1.64-1.29,4.15-3.87,7.55-2.58,3.4-6.01,6.98-10.28,10.75-1.64,2.01-4.15,4.59-7.55,7.73,0,.5-.32,1.2-.94,2.08-.63.88-1.45,1.51-2.45,1.89-1.39,1.26-3.33,3.02-5.85,5.28-2.52,2.26-4.78,4.34-6.79,6.22-2.01,1.89-3.08,3.02-3.21,3.4-.13.25.44,1.35,1.7,3.3,1.26,1.95,2.89,4.24,4.91,6.89,2.01,2.64,4.06,5.25,6.13,7.83,2.07,2.58,3.93,4.72,5.56,6.41,1.63,1.7,2.7,2.55,3.21,2.55,4.15-4.02,8.46-7.95,12.92-11.79,4.46-3.83,9.02-7.89,13.68-12.17,3.14-3.27,5.38-5.57,6.7-6.89s2.33-1.92,3.02-1.79c.69.13,1.48.63,2.36,1.51,1.63.25,2.51,1.04,2.64,2.36.12,1.32-.06,2.58-.57,3.77-.5,1.2-.82,1.86-.94,1.98-1.64,2.14-3.9,4.59-6.79,7.36-2.9,2.77-5.98,5.63-9.24,8.58-3.27,2.96-6.35,5.75-9.24,8.39-2.89,2.64-5.28,4.91-7.17,6.79,3.14,3.65,5.47,6.16,6.98,7.55,4.15,4.28,7.36,7.26,9.62,8.96,2.26,1.7,4.84,3.05,7.74,4.06,3.9,1.26,6.79,2.8,8.68,4.62,1.89,1.82,2.89,4.12,3.02,6.89Zm-92.62-22.83c3.77,1.13,7.48,1.54,11.13,1.23,3.65-.31,7.51-1.35,11.6-3.11,4.09-1.76,8.52-4.27,13.3-7.55l3.58-2.64-4.72-5.47c-.88-1.01-2.2-2.7-3.96-5.09-1.76-2.39-3.52-4.65-5.28-6.79-1.89-1.76-3.84-4.27-5.85-7.55-.38,0-1.23.63-2.55,1.89-1.32,1.26-2.71,2.73-4.15,4.43-1.45,1.7-2.55,3.18-3.3,4.43-2.89,2.26-5.09,4.5-6.6,6.7-1.51,2.2-3.21,4.75-5.09,7.64-.88,2.01-1.38,3.77-1.51,5.28-.13,1.51.09,2.77.66,3.77.57,1.01,1.48,1.95,2.74,2.83Zm21.5-54.71c1.38-1.51,3.49-3.42,6.32-5.75,2.83-2.33,5.91-4.9,9.24-7.73,3.33-2.83,6.44-5.72,9.34-8.68,2.89-2.95,5.19-5.78,6.89-8.49,1.7-2.7,2.23-5.12,1.6-7.26-.25-.5-1.29-1.19-3.11-2.07-1.82-.88-3.84-1.7-6.04-2.45-2.2-.75-4.06-1.07-5.56-.94-2.52-.25-5.38,1.07-8.58,3.96-3.21,2.89-6.26,6.41-9.15,10.56-3.14,4.65-5.03,9.53-5.66,14.62-.63,5.09.94,9.84,4.72,14.24Z"/>
  <path class="cls-2" d="m149.32,49.52h14.49l-44.52,122.1h-14.49l14.73-40.7-29.22-81.4h14.98l21.08,62.59,22.95-62.59Z"/>
</svg>